<?xml version="1.0" encoding="utf-8"?>
<!-- Generator: Adobe Illustrator 19.2.1, SVG Export Plug-In . SVG Version: 6.00 Build 0)  -->
<svg version="1.1" id="Layer_1" xmlns="http://www.w3.org/2000/svg" xmlns:xlink="http://www.w3.org/1999/xlink" x="0px" y="0px"
	 viewBox="0 0 580.7 94.7" style="enable-background:new 0 0 580.7 94.7;" xml:space="preserve">
<style type="text/css">
	.st0{fill:#FFFFFF;}
	.st1{fill:#D2112E;}
</style>
<g>
	<path class="st0" d="M62.1,88c1.1,1.6,3.1,2.5,5.9,2.5V93c-2.5-0.2-4.9-0.3-7.4-0.3c-7,0-12.7,0.6-17.3,1.7V83.6
		c-3.6,7.4-10,11.1-19.1,11.1c-5.9,0-10.2-1.5-12.9-4.6c-1.3-1.5-2.3-3.4-2.8-5.9c-0.6-2.4-0.8-5.6-0.8-9.6V44.5
		c0-3.6-0.6-6.3-1.7-7.9c-1.1-1.7-3.1-2.5-5.9-2.5v-2.5c2.5,0.2,5,0.3,7.4,0.3c6.9,0,12.7-0.5,17.3-1.6v49.2c0,3.3,0.5,5.8,1.5,7.5
		c1,1.7,2.8,2.5,5.6,2.5c2.1,0,4-0.6,5.8-1.8c1.8-1.2,3.2-2.9,4.2-5s1.6-4.4,1.6-7V44.5c0-3.6-0.6-6.3-1.7-7.9
		c-1.1-1.7-3.1-2.5-5.9-2.5v-2.5c2.5,0.2,5,0.3,7.4,0.3c6.9,0,12.7-0.5,17.3-1.6v49.7C60.4,83.7,61,86.4,62.1,88z"/>
	<path class="st0" d="M117.4,30c3.2,0,5.9,0.4,8,1.2c2.1,0.8,3.8,1.9,5.1,3.4c1.3,1.5,2.3,3.5,2.8,5.9c0.6,2.4,0.9,5.6,0.9,9.6V82
		c0,2.2,0.3,3.9,0.8,5.2c0.5,1.2,1.3,2.1,2.4,2.6c1.1,0.5,2.6,0.8,4.5,0.8V93c-7.9-0.3-13.1-0.5-15.7-0.5c-2.4,0-7.6,0.2-15.5,0.5
		v-2.5c1.6,0,2.9-0.3,3.8-0.8c0.9-0.5,1.6-1.4,2-2.6c0.4-1.2,0.6-3,0.6-5.2V45.1c0-3.2-0.5-5.7-1.6-7.4c-1.1-1.7-3-2.5-5.8-2.5
		c-2.2,0-4.1,0.6-5.9,1.8c-1.8,1.2-3.2,2.9-4.3,5c-1,2.1-1.6,4.4-1.6,7V82c0,2.2,0.2,3.9,0.6,5.2c0.4,1.2,1.1,2.1,2,2.6
		c0.9,0.5,2.2,0.8,3.8,0.8V93c-7.3-0.3-12.2-0.5-14.7-0.5c-2.4,0-7.9,0.2-16.4,0.5v-2.5c1.9,0,3.4-0.3,4.5-0.8
		c1.1-0.5,1.9-1.4,2.4-2.6c0.5-1.2,0.7-3,0.7-5.2V44.5c0-3.7-0.6-6.3-1.7-8c-1.1-1.6-3.1-2.5-5.9-2.5v-2.5c2.5,0.2,5,0.3,7.4,0.3
		c7,0,12.8-0.5,17.3-1.6V41C101.5,33.7,108,30,117.4,30z"/>
	<path class="st0" d="M194.3,85c-2,2.8-4.6,5.2-7.8,7c-3.2,1.8-7,2.7-11.2,2.7c-5.3,0-10-1.2-14.2-3.5c-4.2-2.3-7.4-5.9-9.9-10.7
		c-2.4-4.8-3.6-10.8-3.6-17.9c0-7,1.3-12.9,3.8-17.8c2.5-4.9,6-8.6,10.4-11.1c4.4-2.5,9.5-3.7,15.2-3.7c2.9,0,5.7,0.3,8.3,1
		c2.6,0.6,4.8,1.5,6.6,2.6c2,1.3,3.6,2.9,4.8,4.8c1.1,1.9,1.7,4,1.7,6.3c0,2.8-0.9,5.1-2.6,6.9c-1.8,1.8-4,2.6-6.8,2.6
		c-2.8,0-5-0.8-6.6-2.4c-1.6-1.6-2.5-3.7-2.5-6.4c0-2.4,0.8-4.5,2.3-6.2c1.5-1.7,3.4-2.9,5.6-3.5c-0.6-0.8-1.6-1.5-2.9-2.1
		s-2.7-0.8-4.3-0.8c-3.2,0-5.9,1.2-8.2,3.6c-2.3,2.4-4,5.7-5.1,10s-1.7,9.1-1.7,14.5c0,5.8,0.7,10.5,2.2,14c1.5,3.6,3.4,6.1,5.7,7.6
		c2.4,1.5,5,2.3,7.8,2.3c2.7,0,5.4-0.7,8.2-2.1c2.7-1.4,5.2-3.9,7.4-7.5l2,0.7C197.8,79.1,196.3,82.2,194.3,85z"/>
	<path class="st0" d="M230,87.1c0.5,1.2,1.3,2.1,2.4,2.6s2.6,0.8,4.5,0.8V93c-8.2-0.3-13.5-0.5-15.9-0.5c-2.7,0-8.2,0.2-16.4,0.5
		v-2.5c1.9,0,3.4-0.3,4.5-0.8c1.1-0.5,1.9-1.4,2.4-2.6c0.5-1.2,0.8-3,0.8-5.2V14.3c0-3.7-0.6-6.3-1.7-8c-1.1-1.6-3.1-2.5-5.9-2.5
		V1.3c2.5,0.2,5,0.3,7.4,0.3c7,0,12.7-0.6,17.3-1.7v82C229.3,84.2,229.5,85.9,230,87.1z"/>
	<path class="st0" d="M267.4,87.1c0.5,1.2,1.3,2.1,2.4,2.6s2.6,0.8,4.5,0.8V93c-7.9-0.3-13.1-0.5-15.8-0.5c-2.5,0-8,0.2-16.5,0.5
		v-2.5c1.9,0,3.4-0.3,4.5-0.8c1.1-0.5,1.9-1.4,2.4-2.6c0.5-1.2,0.7-3,0.7-5.2V44.5c0-3.7-0.6-6.3-1.7-8c-1.1-1.6-3.1-2.5-5.9-2.5
		v-2.5c2.5,0.2,5,0.3,7.4,0.3c7,0,12.8-0.5,17.3-1.6V82C266.7,84.2,266.9,85.9,267.4,87.1z M265.2,3.4c2,1.6,2.9,3.8,2.9,6.7
		c0,2.9-1,5.1-2.9,6.7s-4.6,2.4-7.9,2.4c-3.4,0-6-0.8-7.9-2.4s-2.9-3.9-2.9-6.7c0-2.8,1-5,2.9-6.7S254,1,257.4,1
		C260.7,1,263.3,1.8,265.2,3.4z"/>
	<path class="st0" d="M327.5,85c-2,2.8-4.6,5.2-7.8,7c-3.2,1.8-7,2.7-11.2,2.7c-5.3,0-10-1.2-14.2-3.5c-4.2-2.3-7.4-5.9-9.9-10.7
		c-2.4-4.8-3.6-10.8-3.6-17.9c0-7,1.3-12.9,3.8-17.8c2.5-4.9,6-8.6,10.4-11.1s9.5-3.7,15.2-3.7c2.9,0,5.7,0.3,8.3,1
		c2.6,0.6,4.8,1.5,6.6,2.6c2,1.3,3.6,2.9,4.8,4.8s1.7,4,1.7,6.3c0,2.8-0.9,5.1-2.6,6.9c-1.8,1.8-4,2.6-6.8,2.6c-2.8,0-5-0.8-6.6-2.4
		c-1.6-1.6-2.5-3.7-2.5-6.4c0-2.4,0.8-4.5,2.3-6.2c1.5-1.7,3.4-2.9,5.6-3.5c-0.6-0.8-1.6-1.5-2.9-2.1c-1.3-0.5-2.7-0.8-4.3-0.8
		c-3.2,0-5.9,1.2-8.2,3.6c-2.3,2.4-4,5.7-5.1,10c-1.2,4.2-1.7,9.1-1.7,14.5c0,5.8,0.7,10.5,2.2,14c1.5,3.6,3.4,6.1,5.7,7.6
		c2.4,1.5,5,2.3,7.8,2.3c2.7,0,5.4-0.7,8.2-2.1c2.7-1.4,5.2-3.9,7.4-7.5l2,0.7C331.1,79.1,329.6,82.2,327.5,85z"/>
	<path class="st0" d="M381.8,30c6.1,0,10.5,1.5,13,4.6c1.3,1.5,2.3,3.5,2.9,5.9c0.6,2.4,0.9,5.6,0.9,9.6V82c0,2.2,0.2,3.9,0.7,5.2
		c0.5,1.2,1.3,2.1,2.3,2.6c1.1,0.5,2.6,0.8,4.5,0.8V93c-8.3-0.3-13.6-0.5-15.7-0.5c-2.7,0-7.8,0.2-15.4,0.5v-2.5
		c1.6,0,2.8-0.3,3.8-0.8s1.6-1.4,2-2.6c0.4-1.2,0.6-3,0.6-5.2V45.1c0-3.2-0.5-5.7-1.6-7.4c-1.1-1.7-3-2.5-5.8-2.5
		c-2.2,0-4.1,0.6-5.9,1.8c-1.8,1.2-3.2,2.8-4.3,4.9c-1,2.1-1.6,4.4-1.6,7V82c0,2.2,0.2,3.9,0.6,5.2c0.4,1.2,1.1,2.1,2,2.6
		c0.9,0.5,2.2,0.8,3.8,0.8V93c-7.6-0.3-12.5-0.5-14.7-0.5c-2.7,0-8.2,0.2-16.4,0.5v-2.5c1.9,0,3.4-0.3,4.5-0.8
		c1.1-0.5,1.9-1.4,2.4-2.6c0.5-1.2,0.8-3,0.8-5.2V14.4c0-3.7-0.6-6.3-1.7-8c-1.1-1.6-3.1-2.5-5.9-2.5V1.4c2.5,0.2,5,0.3,7.4,0.3
		c7,0,12.7-0.6,17.3-1.7V41C366,33.7,372.4,30,381.8,30z"/>
	<path class="st0" d="M429.9,61.9c0,5.3,0.7,9.6,2.2,13.1c1.5,3.5,3.4,6,5.7,7.6c2.3,1.6,4.8,2.4,7.5,2.4c6.5,0,11.8-3.2,15.7-9.5
		l2.1,0.7c-1,3.2-2.6,6.3-4.7,9.1c-2.1,2.8-4.8,5.1-8,6.8s-6.9,2.6-11,2.6c-5.5,0-10.2-1.2-14.4-3.5c-4.1-2.3-7.3-5.8-9.6-10.6
		C413.2,75.9,412,70,412,63c0-7.2,1.2-13.2,3.7-18.2c2.5-4.9,5.9-8.6,10.3-11.1c4.4-2.5,9.4-3.7,15.1-3.7c14.9,0,22.3,8.8,22.3,26.3
		h-33.3C430,57.5,429.9,59.3,429.9,61.9z M446.6,38.6c-1.4-4.1-3.5-6.1-6.2-6.1c-2.8,0-5.2,1.7-7,5.2c-1.9,3.5-3,8.9-3.5,16.3h18.6
		C448.6,47.9,448,42.7,446.6,38.6z"/>
	<path class="st0" d="M530.5,87.9c1.1,1.6,3.1,2.5,5.9,2.5v2.5c-2.5-0.2-5-0.3-7.4-0.3c-7,0-12.8,0.5-17.3,1.6V84
		c-2.7,7.2-7.8,10.7-15.4,10.7c-4.8,0-9.1-1.2-12.7-3.5c-3.7-2.3-6.5-6-8.5-10.8s-3-11-3-18.4c0-7,1.1-12.8,3.3-17.6
		c2.3-4.8,5.4-8.4,9.4-10.8c4-2.4,8.6-3.6,13.8-3.6c5.8,0,10.2,1.5,13.2,4.5V14.3c0-3.7-0.6-6.3-1.7-8c-1.1-1.6-3.1-2.5-5.9-2.5V1.3
		c2.5,0.2,5,0.3,7.4,0.3c7,0,12.7-0.6,17.3-1.7v80C528.8,83.6,529.4,86.3,530.5,87.9z M503,33.4c-4.2,0-7.4,2.4-9.7,7.2
		c-2.3,4.8-3.4,12-3.4,21.6c-0.1,18.2,3.6,27.3,11.2,27.3c1.7,0,3.3-0.4,4.8-1.3c1.5-0.9,2.8-2.1,3.8-3.7c1-1.6,1.7-3.5,1.9-5.6
		V37.5C509.7,34.8,506.8,33.4,503,33.4z"/>
</g>
<circle class="st1" cx="561.6" cy="75.6" r="19.1"/>
</svg>
